<svg xmlns="http://www.w3.org/2000/svg" viewBox="0 0 64 64">
  <!-- Simple placeholder icon: a flat toolbox glyph. Easily replaced
       with real brand art later; only the file path (referenced by
       packaging/linux/it-toolbox.desktop's Icon= key) needs to stay the
       same if it is. -->
  <rect width="64" height="64" rx="12" fill="#2b6cb0"/>
  <path d="M20 26h24a3 3 0 0 1 3 3v16a3 3 0 0 1-3 3H20a3 3 0 0 1-3-3V29a3 3 0 0 1 3-3z"
        fill="#f7fafc"/>
  <path d="M25 26v-4a4 4 0 0 1 4-4h6a4 4 0 0 1 4 4v4" fill="none" stroke="#f7fafc"
        stroke-width="3" stroke-linecap="round"/>
  <rect x="17" y="34" width="30" height="5" fill="#2b6cb0"/>
  <rect x="29" y="31" width="6" height="11" rx="1.5" fill="#2b6cb0"/>
</svg>
